<svg xmlns="http://www.w3.org/2000/svg" viewBox="0 0 1792 1792"><defs><style>.cls-1{fill:#e6e6e6;}.cls-2{fill:#4f4f4f;}</style></defs><title>Asset 4</title><g id="Layer_2" data-name="Layer 2"><g id="Layer_1-2" data-name="Layer 1"><rect class="cls-1" width="1792" height="1792" rx="515.04"/><path class="cls-2" d="M1792,515v42.71H0V515C0,230.59,230.59,0,515,0H1277C1561.41,0,1792,230.59,1792,515Z"/><path class="cls-2" d="M573.39,738.88q72.57,0,127.75,33.22t86.38,96.06Q818.69,931,818.69,1020v194.2q0,87.88-31.69,151.26T700.12,1462q-55.18,33.21-126.73,33.22T446.64,1462q-55.2-33.21-86.87-96.58t-31.68-151.26V1020q0-88.94,31.68-151.79t86.87-96.06Q501.84,738.89,573.39,738.88Zm0,143.08q-47,0-69.5,29.64T481.41,1020v127.76h20.43a199.55,199.55,0,0,1,27.08-47.53q16.88-22,52.64-52.64Q603,1028.13,623,1011.26T663.33,976q-5.12-48-23.5-69.5Q618.37,882,573.39,882Zm-69.5,444.61A94.51,94.51,0,0,0,529.94,1345q14.8,7.14,37.31,7.14,48,0,73.08-31.67t25-106.3V1083.32H644.94a200.87,200.87,0,0,1-25.05,45.48q-14.8,19.93-42.41,45.49-49.07,46-94,83.8,2,24.54,7.14,42.42T503.89,1326.57Z"/><path class="cls-2" d="M961.77,1329.63h184V900.37H1125.3q-19.42,35.76-38.84,56.72a329.41,329.41,0,0,1-43.94,39.36q-23.54,17.38-35.27,25t-16.86,7.66q-8.19,0-8.18-10.22V855.4q19.39-13.29,38.84-26.58t38.84-26.58q13.27-9.18,29.63-20.44t30.16-20.43q13.77-9.2,17.89-12.27h150.25q11.22,0,11.23,11.24v569.29h131.86q11.22,0,11.23,11.25v133.89H973a10.54,10.54,0,0,1-11.25-11.25Z"/></g></g></svg>