<svg xmlns="http://www.w3.org/2000/svg" xmlns:xlink="http://www.w3.org/1999/xlink" id="Capa_1" x="0" y="0" version="1.1" viewBox="0 0 512 512" xml:space="preserve" style="enable-background:new 0 0 512 512"><path style="fill:#e1e4fb" d="M452,152v255c0,24.899-20.099,45-45,45H45c-24.901,0-45-20.101-45-45V152l30-32h392L452,152z"/><path style="fill:#c5c9f7" d="M452,152v255c0,24.899-20.099,45-45,45H226V120h196L452,152z"/><path style="fill:#ff507e" d="M452,75v77H0V75c0-24.901,20.099-45,45-45h362C431.901,30,452,50.099,452,75z"/><path style="fill:#f40f78" d="M452,75v77H226V30h181C431.901,30,452,50.099,452,75z"/><g><path style="fill:#7a7780" d="M75,90c-8.291,0-15-6.709-15-15V15c0-8.291,6.709-15,15-15s15,6.709,15,15v60 C90,83.291,83.291,90,75,90z"/><path style="fill:#7a7780" d="M165,90c-8.291,0-15-6.709-15-15V15c0-8.291,6.709-15,15-15s15,6.709,15,15v60 C180,83.291,173.291,90,165,90z"/></g><g><path style="fill:#57555c" d="M287,90c-8.291,0-15-6.709-15-15V15c0-8.291,6.709-15,15-15s15,6.709,15,15v60 C302,83.291,295.291,90,287,90z"/><path style="fill:#57555c" d="M377,90c-8.291,0-15-6.709-15-15V15c0-8.291,6.709-15,15-15s15,6.709,15,15v60 C392,83.291,385.291,90,377,90z"/></g><g><path style="fill:#adacb2" d="M105,212H75c-8.291,0-15-6.709-15-15s6.709-15,15-15h30c8.291,0,15,6.709,15,15S113.291,212,105,212 z"/><path style="fill:#adacb2" d="M196,212h-31c-8.291,0-15-6.709-15-15s6.709-15,15-15h31c8.291,0,15,6.709,15,15 S204.291,212,196,212z"/></g><g><path style="fill:#8a8891" d="M287,212h-31c-8.291,0-15-6.709-15-15s6.709-15,15-15h31c8.291,0,15,6.709,15,15 S295.291,212,287,212z"/><path style="fill:#8a8891" d="M377,212h-30c-8.291,0-15-6.709-15-15s6.709-15,15-15h30c8.291,0,15,6.709,15,15 S385.291,212,377,212z"/></g><g><path style="fill:#adacb2" d="M105,272H75c-8.291,0-15-6.709-15-15s6.709-15,15-15h30c8.291,0,15,6.709,15,15 C120,265.291,113.291,272,105,272z"/><path style="fill:#adacb2" d="M196,272h-31c-8.291,0-15-6.709-15-15s6.709-15,15-15h31c8.291,0,15,6.709,15,15 C211,265.291,204.291,272,196,272z"/></g><g><path style="fill:#8a8891" d="M287,272h-31c-8.291,0-15-6.709-15-15s6.709-15,15-15h31c8.291,0,15,6.709,15,15 C302,265.291,295.291,272,287,272z"/><path style="fill:#8a8891" d="M377,272h-30c-8.291,0-15-6.709-15-15s6.709-15,15-15h30c8.291,0,15,6.709,15,15 C392,265.291,385.291,272,377,272z"/></g><g><path style="fill:#adacb2" d="M105,332H75c-8.291,0-15-6.709-15-15s6.709-15,15-15h30c8.291,0,15,6.709,15,15S113.291,332,105,332 z"/><path style="fill:#adacb2" d="M196,332h-31c-8.291,0-15-6.709-15-15s6.709-15,15-15h31c8.291,0,15,6.709,15,15 S204.291,332,196,332z"/></g><path style="fill:#8a8891" d="M287,332h-31c-8.291,0-15-6.709-15-15s6.709-15,15-15h31c8.291,0,15,6.709,15,15S295.291,332,287,332	z"/><g><path style="fill:#adacb2" d="M105,392H75c-8.291,0-15-6.709-15-15s6.709-15,15-15h30c8.291,0,15,6.709,15,15S113.291,392,105,392 z"/><path style="fill:#adacb2" d="M196,392h-31c-8.291,0-15-6.709-15-15s6.709-15,15-15h31c8.291,0,15,6.709,15,15 S204.291,392,196,392z"/></g><path style="fill:#8a8891" d="M287,392h-31c-8.291,0-15-6.709-15-15s6.709-15,15-15h31c8.291,0,15,6.709,15,15S295.291,392,287,392	z"/><path style="fill:#fea832" d="M407,302c-57.9,0-105,47.1-105,105s47.1,105,105,105s105-47.1,105-105S464.9,302,407,302z"/><path style="fill:#fe9923" d="M512,407c0,57.9-47.1,105-105,105V302C464.9,302,512,349.1,512,407z"/><path style="fill:#7a7780" d="M452,407c0,8.399-6.599,15-15,15h-30c-8.401,0-15-6.601-15-15v-60c0-8.401,6.599-15,15-15	s15,6.599,15,15v45h15C445.401,392,452,398.599,452,407z"/><path style="fill:#57555c" d="M452,407c0,8.399-6.599,15-15,15h-30v-90c8.401,0,15,6.599,15,15v45h15	C445.401,392,452,398.599,452,407z"/></svg>