<svg xmlns="http://www.w3.org/2000/svg" xmlns:xlink="http://www.w3.org/1999/xlink" id="Layer_1" x="0" y="0" version="1.1" viewBox="0 0 512 512" xml:space="preserve" style="enable-background:new 0 0 512 512"><path style="fill:#f1f1f1" d="M511.71,243.75c-0.03-0.64-0.06-1.29-0.1-1.93c-0.01-0.38-0.04-0.76-0.06-1.15	c-0.15-2.55-0.34-5.1-0.56-7.65c-0.26-2.92-0.57-5.83-0.92-8.73c-0.13-1.04-0.26-2.09-0.41-3.13c-0.14-1.04-0.28-2.08-0.44-3.11	c-0.32-2.17-0.66-4.34-1.04-6.49c-0.16-0.94-0.33-1.88-0.51-2.81c-0.19-1.03-0.38-2.06-0.59-3.08c-0.2-1.03-0.41-2.05-0.63-3.07	c-0.4-1.91-0.82-3.81-1.27-5.7c-0.26-1.08-0.52-2.16-0.78-3.24c-1.8-7.22-3.91-14.34-6.33-21.35c-0.34-1-0.69-1.99-1.05-2.98	c-1.01-2.84-2.08-5.67-3.21-8.47c-0.38-0.96-0.77-1.92-1.17-2.88c-0.34-0.83-0.69-1.65-1.04-2.48c-0.39-0.92-0.79-1.84-1.2-2.75	c-0.36-0.82-0.72-1.63-1.09-2.44c-0.29-0.65-0.59-1.29-0.89-1.94c-0.1-0.24-0.22-0.47-0.33-0.71c-0.32-0.68-0.64-1.37-0.97-2.05	c-0.74-1.57-1.51-3.12-2.29-4.66c-0.45-0.91-0.92-1.81-1.39-2.72c-1.07-2.07-2.18-4.13-3.32-6.17c-0.29-0.54-0.58-1.07-0.89-1.6	c-0.24-0.44-0.49-0.87-0.74-1.3h-0.01c-0.35-0.62-0.69-1.24-1.05-1.85c-0.55-0.93-1.09-1.85-1.64-2.76	c-1.93-3.22-3.94-6.4-6.02-9.54c-1.07-1.61-2.14-3.2-3.25-4.79c-0.73-1.06-1.47-2.1-2.22-3.14c-0.62-0.87-1.25-1.74-1.89-2.6	c-0.27-0.38-0.55-0.75-0.83-1.12c-1.03-1.39-2.08-2.76-3.14-4.12c-1.29-1.66-2.61-3.31-3.95-4.95c-0.34-0.41-0.68-0.83-1.03-1.25	c-3.1-3.75-6.31-7.41-9.64-11c-0.47-0.5-0.94-1.01-1.42-1.52l-0.09-0.09c-0.67-0.71-1.34-1.42-2.03-2.12	c-1.07-1.12-2.16-2.23-3.26-3.33c-0.79-0.79-1.58-1.57-2.38-2.34c-0.47-0.47-0.95-0.93-1.43-1.39c-0.72-0.7-1.45-1.39-2.19-2.08	c-0.88-0.83-1.77-1.65-2.66-2.46c-0.98-0.9-1.97-1.78-2.96-2.66c-1.06-0.94-2.12-1.87-3.2-2.78c-0.69-0.61-1.4-1.2-2.11-1.79	c-0.83-0.7-1.67-1.39-2.51-2.08c-0.84-0.69-1.68-1.37-2.53-2.04c-0.69-0.55-1.39-1.1-2.09-1.65c-0.74-0.57-1.48-1.15-2.23-1.71	c-0.48-0.37-0.96-0.73-1.44-1.09c-0.58-0.44-1.16-0.88-1.75-1.31c-0.29-0.21-0.58-0.42-0.87-0.64c-0.58-0.41-1.15-0.83-1.74-1.25	c-0.95-0.69-1.9-1.36-2.87-2.03c-1.76-1.24-3.54-2.44-5.34-3.63c-1.03-0.68-2.06-1.35-3.1-2.01c-0.94-0.6-1.88-1.2-2.82-1.78	c-0.24-0.16-0.5-0.32-0.75-0.47c-0.77-0.48-1.55-0.94-2.32-1.41c-0.31-0.19-0.62-0.37-0.93-0.56c-0.95-0.57-1.9-1.13-2.86-1.68	c-1.06-0.62-2.12-1.22-3.2-1.82c-0.49-0.28-0.98-0.55-1.48-0.82c-2.8-1.55-5.63-3.04-8.5-4.47c-0.68-0.35-1.36-0.69-2.05-1.02	c-0.68-0.34-1.36-0.67-2.05-1s-1.37-0.66-2.06-0.98c-0.69-0.33-1.38-0.65-2.07-0.96c-3.76-1.72-7.56-3.35-11.39-4.88	c-0.96-0.39-1.93-0.77-2.9-1.14c-0.97-0.37-1.94-0.74-2.91-1.1c-0.74-0.28-1.48-0.55-2.23-0.82c-1.32-0.48-2.64-0.94-3.97-1.39	c-0.87-0.3-1.74-0.59-2.61-0.88c-5.61-1.86-11.29-3.51-17.03-4.97c-0.76-0.19-1.53-0.38-2.3-0.57c-0.87-0.21-1.73-0.42-2.61-0.62	c-0.73-0.18-1.46-0.34-2.2-0.51c-0.99-0.22-1.98-0.43-2.98-0.64c-0.69-0.15-1.38-0.29-2.08-0.43c-0.53-0.11-1.05-0.21-1.58-0.31	c-5.4-1.07-10.84-1.95-16.33-2.66c-0.74-0.1-1.49-0.19-2.24-0.28c-2.38-0.29-4.76-0.54-7.15-0.76c-0.02-0.01-0.03-0.01-0.04,0	c-0.83-0.09-1.67-0.16-2.51-0.22c-2.15-0.19-4.31-0.34-6.47-0.45c-0.51-0.04-1.03-0.07-1.54-0.09c-0.51-0.03-1.02-0.05-1.54-0.07	c-0.19-0.01-0.37-0.02-0.56-0.02c-1.18-0.06-2.36-0.1-3.54-0.14c-0.16-0.01-0.33-0.01-0.5-0.01c-1.2-0.04-2.4-0.07-3.61-0.08	C258.48,0.01,257.24,0,256,0c-5.02,0-10.02,0.14-15,0.44c-35.58,2.03-69.79,11.33-100.91,27.17c-0.88,0.45-1.75,0.9-2.62,1.36	c-2.62,1.36-5.23,2.78-7.8,4.25c-5.26,2.99-10.42,6.17-15.47,9.54c-2.46,1.65-4.89,3.34-7.3,5.07	c-11.25,8.09-21.93,17.16-31.92,27.15c-10.4,10.4-19.8,21.55-28.14,33.31c-1.83,2.57-3.6,5.17-5.33,7.8	c-5.5,8.4-10.48,17.08-14.92,26.02c-15.36,30.86-24.33,64.7-26.21,99.86C0.13,246.63,0,251.3,0,256c0,5.35,0.16,10.67,0.49,15.97	c0.16,2.72,0.37,5.43,0.63,8.14c2.67,28.86,10.15,56.7,22.03,82.6c1.38,3,2.81,5.97,4.31,8.91c4.51,8.9,9.56,17.55,15.12,25.91	c9.36,14.05,20.19,27.28,32.4,39.49c12.6,12.6,26.29,23.73,40.84,33.28c8.39,5.52,17.07,10.52,26.01,14.97	c2.52,1.26,5.06,2.48,7.62,3.65c26.02,11.92,54.01,19.39,83.01,22.01c3.05,0.29,6.11,0.51,9.18,0.67c4.76,0.27,9.55,0.4,14.36,0.4	c1.59,0,3.17-0.01,4.75-0.05c0.83-0.01,1.66-0.03,2.48-0.06c0.08,0.01,0.16,0.01,0.24,0c0.31-0.01,0.62-0.01,0.93-0.03	c0.05,0,0.11,0,0.16-0.01c1.06-0.03,2.12-0.07,3.18-0.12c1.15-0.05,2.3-0.11,3.44-0.18c0.15,0,0.3-0.01,0.46-0.02	c1.16-0.07,2.32-0.14,3.47-0.23c2.11-0.16,4.22-0.34,6.32-0.54c1.1-0.11,2.21-0.22,3.31-0.35c1.09-0.12,2.18-0.25,3.26-0.38	c0.95-0.11,1.89-0.24,2.84-0.37c0.65-0.08,1.29-0.17,1.94-0.27c0.45-0.06,0.9-0.13,1.35-0.2c0.98-0.14,1.96-0.29,2.93-0.45	c0.74-0.11,1.47-0.23,2.2-0.36c0.55-0.09,1.11-0.19,1.66-0.29c0.1-0.01,0.2-0.03,0.3-0.05c0.57-0.1,1.14-0.2,1.7-0.31	c0.21-0.03,0.42-0.07,0.63-0.12c0.56-0.1,1.11-0.2,1.66-0.32c0.12-0.01,0.24-0.03,0.36-0.07c0.44-0.08,0.88-0.16,1.31-0.25	c0.85-0.17,1.68-0.34,2.52-0.52c2.65-0.55,5.28-1.15,7.9-1.8c0.9-0.21,1.79-0.44,2.68-0.67c0.53-0.13,1.06-0.27,1.59-0.41	c0.7-0.18,1.39-0.37,2.09-0.56c0.02,0,0.03-0.01,0.05-0.01c0.84-0.23,1.69-0.46,2.53-0.71c0.74-0.21,1.49-0.42,2.23-0.64	c1.42-0.42,2.85-0.85,4.26-1.29c0.94-0.29,1.87-0.59,2.8-0.9c1.02-0.33,2.04-0.67,3.06-1.02c0.51-0.17,1.02-0.34,1.53-0.52	c0.51-0.17,1.02-0.35,1.53-0.54c1.01-0.36,2.03-0.72,3.04-1.1c1.01-0.37,2.01-0.74,3.02-1.13c1-0.39,2.01-0.78,3.01-1.18	s2-0.8,2.99-1.21c1-0.41,1.99-0.83,2.98-1.25c0.06-0.02,0.13-0.05,0.2-0.08c1.2-0.52,2.4-1.04,3.6-1.58	c0.04-0.01,0.08-0.03,0.12-0.05c1.19-0.54,2.37-1.08,3.55-1.63c2.41-1.13,4.8-2.29,7.17-3.49c1.11-0.56,2.22-1.13,3.33-1.71	c0.86-0.45,1.72-0.91,2.57-1.37c2.52-1.34,5-2.74,7.46-4.17c1.02-0.6,2.03-1.2,3.04-1.81c2.31-1.38,4.59-2.81,6.85-4.27	c0.9-0.58,1.79-1.17,2.68-1.76c2.36-1.56,4.7-3.17,7.01-4.83c1.45-1.03,2.88-2.08,4.31-3.14c1.43-1.06,2.84-2.13,4.24-3.23	l1.68-1.32c0.84-0.66,1.68-1.33,2.51-2.01c0.7-0.56,1.39-1.13,2.07-1.7c0.81-0.67,1.61-1.34,2.41-2.02	c5.34-4.53,10.52-9.31,15.53-14.32c1.17-1.17,2.33-2.35,3.47-3.54c0.69-0.71,1.37-1.43,2.04-2.15c1.32-1.39,2.6-2.79,3.88-4.2	c1.21-1.35,2.41-2.7,3.59-4.07c0.12-0.14,0.24-0.28,0.36-0.42c0.71-0.82,1.41-1.65,2.1-2.48c1.06-1.26,2.11-2.53,3.14-3.81	c0.43-0.54,0.86-1.08,1.29-1.62c0.61-0.77,1.21-1.53,1.81-2.31c0.6-0.77,1.2-1.55,1.79-2.34c0.99-1.3,1.96-2.61,2.91-3.92	c0.49-0.68,0.98-1.35,1.46-2.03c0.04-0.04,0.07-0.09,0.11-0.15c1.05-1.47,2.09-2.97,3.11-4.47c0.67-0.97,1.32-1.95,1.96-2.93	c0.03-0.04,0.06-0.08,0.09-0.13c0.03-0.05,0.07-0.1,0.09-0.15c0.41-0.61,0.81-1.21,1.2-1.83c0.14-0.22,0.29-0.44,0.43-0.67	c0.79-1.24,1.58-2.49,2.36-3.75c0.65-1.06,1.29-2.12,1.93-3.19c0.25-0.42,0.5-0.85,0.75-1.28c0.38-0.64,0.76-1.28,1.13-1.92	c1.89-3.26,3.69-6.56,5.42-9.89c0.57-1.1,1.13-2.2,1.68-3.31c0.86-1.71,1.7-3.42,2.51-5.15c0.66-1.41,1.32-2.82,1.96-4.24	c0.35-0.77,0.68-1.53,1.02-2.3c0.41-0.92,0.8-1.85,1.19-2.77c1.76-4.11,3.39-8.28,4.91-12.48c0.27-0.72,0.53-1.45,0.78-2.18	c0.98-2.75,1.9-5.53,2.77-8.32c0.3-0.93,0.58-1.86,0.86-2.79c0.27-0.88,0.53-1.76,0.79-2.64c0.35-1.2,0.69-2.41,1.02-3.62	c0.05-0.18,0.1-0.36,0.14-0.54c0.27-0.98,0.53-1.96,0.78-2.95c0.07-0.25,0.14-0.5,0.19-0.75c0.21-0.8,0.42-1.61,0.61-2.42	c0.13-0.53,0.26-1.07,0.39-1.6c1.14-4.8,2.15-9.65,3-14.53c0.13-0.74,0.27-1.49,0.39-2.24c0.11-0.63,0.21-1.25,0.31-1.88	c0.17-1.03,0.33-2.07,0.48-3.11c0.16-1.03,0.3-2.07,0.44-3.11c0.21-1.52,0.4-3.03,0.57-4.55c0.1-0.83,0.19-1.67,0.28-2.51	c0.12-1.08,0.23-2.17,0.33-3.26c0.06-0.55,0.11-1.1,0.15-1.64c0.05-0.54,0.09-1.09,0.14-1.64c0.08-0.97,0.15-1.94,0.22-2.91	c0.04-0.42,0.07-0.85,0.09-1.27c0.05-0.8,0.1-1.59,0.14-2.39c0.07-1.22,0.13-2.44,0.18-3.66c0.11-2.44,0.18-4.88,0.21-7.33	c0.02-1.23,0.03-2.45,0.03-3.68v-0.27C512,251.72,511.9,247.73,511.71,243.75z"/><path style="fill:#e1e1e4" d="M512,256c0,1.23-0.01,2.45-0.03,3.68c-0.03,2.45-0.1,4.89-0.21,7.33c-0.05,1.22-0.11,2.44-0.18,3.66	c-0.04,0.8-0.09,1.59-0.14,2.39c-0.02,0.42-0.05,0.85-0.09,1.27c-0.07,0.97-0.14,1.94-0.22,2.91c-0.05,0.55-0.09,1.1-0.14,1.64	c-0.04,0.54-0.09,1.09-0.15,1.64c-0.1,1.09-0.21,2.18-0.33,3.26c-0.09,0.84-0.18,1.68-0.28,2.51c-0.17,1.52-0.36,3.03-0.57,4.55	c-0.14,1.04-0.28,2.08-0.44,3.11c-0.15,1.04-0.31,2.08-0.48,3.11c-0.1,0.63-0.2,1.25-0.31,1.88c-0.12,0.75-0.26,1.5-0.39,2.24	c-0.85,4.88-1.86,9.73-3,14.53c-0.13,0.53-0.26,1.07-0.39,1.6c-0.19,0.81-0.4,1.62-0.61,2.42c-0.05,0.25-0.12,0.5-0.19,0.75	c-0.25,0.99-0.51,1.97-0.78,2.95c-0.04,0.18-0.09,0.36-0.14,0.54c-0.33,1.21-0.67,2.42-1.02,3.62c-0.26,0.88-0.52,1.76-0.79,2.64	c-0.28,0.93-0.56,1.86-0.86,2.79c-0.87,2.79-1.79,5.57-2.77,8.32c-0.25,0.73-0.51,1.46-0.78,2.18c-1.52,4.2-3.15,8.37-4.91,12.48	c-0.38,0.93-0.78,1.85-1.19,2.77c-0.34,0.77-0.67,1.53-1.02,2.3c-0.64,1.42-1.3,2.83-1.96,4.24c-0.81,1.73-1.65,3.44-2.51,5.15	c-0.55,1.11-1.11,2.21-1.68,3.31c-1.73,3.33-3.53,6.63-5.42,9.89c-0.62,1.07-1.25,2.14-1.88,3.2c-0.64,1.07-1.28,2.13-1.93,3.19	c-0.78,1.26-1.57,2.51-2.36,3.75c-0.14,0.23-0.29,0.45-0.43,0.67c-0.39,0.62-0.79,1.22-1.2,1.83c-0.02,0.05-0.06,0.1-0.09,0.15	s-0.06,0.09-0.09,0.13c-0.64,0.98-1.29,1.96-1.96,2.93c-1.02,1.5-2.06,3-3.11,4.47c-0.04,0.06-0.07,0.11-0.11,0.15	c-0.48,0.68-0.97,1.35-1.46,2.03c-0.95,1.31-1.92,2.62-2.91,3.92c-0.59,0.79-1.19,1.57-1.79,2.34c-0.6,0.78-1.2,1.54-1.81,2.31	c-0.43,0.54-0.86,1.08-1.29,1.62c-1.03,1.28-2.08,2.55-3.14,3.81c-0.69,0.83-1.39,1.66-2.1,2.48c-0.12,0.14-0.24,0.28-0.36,0.42	c-1.18,1.37-2.38,2.72-3.59,4.07c-1.28,1.41-2.56,2.81-3.88,4.2c-0.67,0.72-1.35,1.44-2.04,2.15c-1.14,1.19-2.3,2.37-3.47,3.54	c-5.01,5.01-10.19,9.79-15.53,14.32c-0.8,0.68-1.6,1.35-2.41,2.02c-0.68,0.57-1.37,1.14-2.07,1.7c-0.83,0.68-1.67,1.35-2.51,2.01	l-1.68,1.32c-1.4,1.1-2.81,2.17-4.24,3.23s-2.86,2.11-4.31,3.14c-2.31,1.66-4.65,3.27-7.01,4.83c-0.89,0.59-1.78,1.18-2.68,1.76	c-2.26,1.46-4.54,2.89-6.85,4.27c-1.01,0.61-2.02,1.21-3.04,1.81c-2.46,1.43-4.94,2.83-7.46,4.17c-0.85,0.46-1.71,0.92-2.57,1.37	c-1.11,0.58-2.22,1.15-3.33,1.71c-2.37,1.21-4.76,2.37-7.17,3.49c-1.18,0.55-2.36,1.09-3.55,1.63c-0.04,0.02-0.08,0.04-0.12,0.05	c-1.2,0.54-2.4,1.06-3.6,1.58c-0.07,0.03-0.14,0.06-0.2,0.08c-0.99,0.42-1.98,0.84-2.98,1.25c-0.99,0.41-1.99,0.81-2.99,1.21	s-2.01,0.79-3.01,1.18c-1.01,0.39-2.01,0.76-3.02,1.13c-1.01,0.38-2.03,0.74-3.04,1.1c-0.51,0.19-1.02,0.37-1.53,0.54	c-0.51,0.18-1.02,0.35-1.53,0.52c-1.02,0.35-2.04,0.69-3.06,1.02c-0.93,0.31-1.86,0.61-2.8,0.9c-1.41,0.44-2.84,0.87-4.26,1.29	c-0.74,0.22-1.49,0.43-2.23,0.64c-0.84,0.25-1.69,0.48-2.53,0.71c-0.02,0-0.03,0.01-0.05,0.01c-0.7,0.19-1.39,0.38-2.09,0.56	c-0.53,0.14-1.06,0.28-1.59,0.41c-0.89,0.23-1.78,0.46-2.68,0.67c-2.62,0.65-5.25,1.25-7.9,1.8c-0.84,0.18-1.67,0.35-2.52,0.52	c-0.43,0.09-0.87,0.17-1.31,0.25c-0.12,0.04-0.24,0.06-0.36,0.07c-0.55,0.12-1.1,0.22-1.66,0.32c-0.21,0.05-0.42,0.09-0.63,0.12	c-0.56,0.11-1.13,0.21-1.7,0.31c-0.1,0.02-0.2,0.04-0.3,0.05c-0.55,0.1-1.11,0.2-1.66,0.29c-0.73,0.13-1.46,0.25-2.2,0.36	c-0.97,0.16-1.95,0.31-2.93,0.45c-0.45,0.07-0.9,0.14-1.35,0.2c-0.65,0.1-1.29,0.19-1.94,0.27c-0.95,0.13-1.89,0.26-2.84,0.37	c-1.08,0.13-2.17,0.26-3.26,0.38c-1.1,0.13-2.21,0.24-3.31,0.35c-2.1,0.2-4.21,0.38-6.32,0.54c-1.15,0.09-2.31,0.16-3.47,0.23	c-0.16,0.01-0.31,0.02-0.46,0.02c-1.14,0.07-2.29,0.13-3.44,0.18c-1.06,0.05-2.12,0.09-3.18,0.12c-0.05,0.01-0.11,0.01-0.16,0.01	c-0.31,0.02-0.62,0.02-0.93,0.03c-0.08,0.01-0.16,0.01-0.24,0c-0.82,0.03-1.65,0.05-2.48,0.06c-1.58,0.04-3.16,0.05-4.75,0.05V0	c1.24,0,2.48,0.01,3.71,0.03c2.75,0.03,5.48,0.12,8.21,0.25c0.52,0.02,1.03,0.04,1.54,0.07c0.51,0.02,1.03,0.05,1.54,0.09	c2.16,0.11,4.32,0.26,6.47,0.45c0.84,0.06,1.68,0.13,2.51,0.22c0.01-0.01,0.02-0.01,0.04,0c2.39,0.22,4.77,0.47,7.15,0.76	c0.75,0.09,1.5,0.18,2.24,0.28c5.49,0.71,10.93,1.59,16.33,2.66c0.53,0.1,1.05,0.2,1.58,0.31c0.7,0.14,1.39,0.28,2.08,0.43	c1,0.21,1.99,0.42,2.98,0.64c0.74,0.17,1.47,0.33,2.2,0.51c0.88,0.2,1.74,0.41,2.61,0.62c0.77,0.19,1.54,0.38,2.3,0.57	c5.74,1.46,11.42,3.11,17.03,4.97c0.87,0.29,1.74,0.58,2.61,0.88c1.33,0.45,2.65,0.91,3.97,1.39c0.75,0.27,1.49,0.54,2.23,0.82	c0.97,0.36,1.94,0.73,2.91,1.1c0.97,0.37,1.94,0.75,2.9,1.14c3.83,1.53,7.63,3.16,11.39,4.88c0.69,0.31,1.38,0.63,2.07,0.96	c0.69,0.32,1.37,0.65,2.06,0.98s1.37,0.66,2.05,1c0.69,0.33,1.37,0.67,2.05,1.02c2.87,1.43,5.7,2.92,8.5,4.47	c0.5,0.27,0.99,0.54,1.48,0.82c1.08,0.6,2.14,1.2,3.2,1.82c0.96,0.55,1.91,1.11,2.86,1.68c1.09,0.65,2.17,1.3,3.25,1.97	c0.25,0.15,0.51,0.31,0.75,0.47c0.94,0.58,1.88,1.18,2.82,1.78c1.04,0.66,2.07,1.33,3.1,2.01c1.8,1.19,3.58,2.39,5.34,3.63	c0.97,0.67,1.92,1.34,2.87,2.03c0.59,0.42,1.16,0.84,1.74,1.25c0.29,0.22,0.58,0.43,0.87,0.64c0.59,0.43,1.17,0.87,1.75,1.31	c0.48,0.36,0.96,0.72,1.44,1.09c0.75,0.56,1.49,1.14,2.23,1.71c0.7,0.55,1.4,1.1,2.09,1.65c0.85,0.67,1.69,1.35,2.53,2.04	c0.84,0.69,1.68,1.38,2.51,2.08c0.71,0.59,1.42,1.18,2.11,1.79c1.08,0.91,2.14,1.84,3.2,2.78c0.99,0.88,1.98,1.76,2.96,2.66	c0.89,0.81,1.78,1.63,2.66,2.46c0.74,0.69,1.47,1.38,2.19,2.08c0.48,0.46,0.96,0.92,1.43,1.39c0.8,0.77,1.59,1.55,2.38,2.34	c1.1,1.1,2.19,2.21,3.26,3.33c0.69,0.7,1.36,1.41,2.03,2.12l0.09,0.09c0.48,0.51,0.95,1.02,1.42,1.52c3.33,3.59,6.54,7.25,9.64,11	c0.35,0.42,0.69,0.84,1.03,1.25c1.34,1.64,2.66,3.29,3.95,4.95c1.06,1.36,2.11,2.73,3.14,4.12c0.28,0.37,0.56,0.74,0.83,1.12	c0.64,0.86,1.27,1.73,1.89,2.6c0.75,1.04,1.49,2.08,2.22,3.14c1.11,1.59,2.18,3.18,3.25,4.79c2.08,3.14,4.09,6.32,6.02,9.54	c0.55,0.91,1.09,1.83,1.64,2.76c0.61,1.04,1.21,2.09,1.8,3.15c0.31,0.53,0.6,1.06,0.89,1.6c1.14,2.04,2.25,4.1,3.32,6.17	c0.47,0.91,0.94,1.81,1.39,2.72c0.78,1.54,1.55,3.09,2.29,4.66c0.33,0.68,0.65,1.37,0.97,2.05c0.11,0.24,0.23,0.47,0.33,0.71	c0.3,0.65,0.6,1.29,0.89,1.94c0.37,0.81,0.73,1.62,1.09,2.44c0.41,0.91,0.81,1.83,1.2,2.75c0.35,0.83,0.7,1.65,1.04,2.48	c0.4,0.96,0.79,1.92,1.17,2.88c1.13,2.8,2.2,5.63,3.21,8.47c0.36,0.99,0.71,1.98,1.05,2.98c2.42,7.01,4.53,14.13,6.33,21.35	c0.26,1.08,0.52,2.16,0.78,3.24c0.45,1.89,0.87,3.79,1.27,5.7c0.22,1.02,0.43,2.04,0.63,3.07c0.21,1.02,0.4,2.05,0.59,3.08	c0.18,0.93,0.35,1.87,0.51,2.81c0.38,2.15,0.72,4.32,1.04,6.49c0.16,1.03,0.3,2.07,0.44,3.11c0.15,1.04,0.28,2.09,0.41,3.13	c0.35,2.9,0.66,5.81,0.92,8.73c0.22,2.55,0.41,5.1,0.56,7.65c0.02,0.39,0.05,0.77,0.06,1.15c0.04,0.64,0.07,1.29,0.1,1.93	C511.9,247.82,512,251.9,512,256z"/><path style="fill:#e70020" d="M511.71,243.75c-0.03-0.64-0.06-1.29-0.1-1.93c-0.01-0.38-0.04-0.76-0.06-1.15	c-0.15-2.55-0.34-5.1-0.56-7.65c-0.26-2.92-0.57-5.83-0.92-8.73c-0.13-1.04-0.26-2.09-0.41-3.13c-0.14-1.04-0.28-2.08-0.44-3.11	c-0.32-2.17-0.66-4.34-1.04-6.49c-0.16-0.94-0.33-1.88-0.51-2.81c-0.19-1.03-0.38-2.06-0.59-3.08c-0.2-1.03-0.41-2.05-0.63-3.07	c-0.4-1.91-0.82-3.81-1.27-5.7c-0.26-1.08-0.52-2.16-0.78-3.24c-1.8-7.22-3.91-14.34-6.33-21.35c-0.34-1-0.69-1.99-1.05-2.98	c-1.01-2.84-2.08-5.67-3.21-8.47c-0.38-0.96-0.77-1.92-1.17-2.88c-0.34-0.83-0.69-1.65-1.04-2.48c-0.39-0.92-0.79-1.84-1.2-2.75	c-0.36-0.82-0.72-1.63-1.09-2.44c-0.29-0.65-0.59-1.29-0.89-1.94c-0.1-0.24-0.22-0.47-0.33-0.71c-0.32-0.68-0.64-1.37-0.97-2.05	c-0.74-1.57-1.51-3.12-2.29-4.66c-0.45-0.91-0.92-1.81-1.39-2.72c-1.07-2.07-2.18-4.13-3.32-6.17c-0.29-0.54-0.58-1.07-0.89-1.6	c-0.59-1.06-1.19-2.11-1.8-3.15c-0.55-0.93-1.09-1.85-1.64-2.76c-1.93-3.22-3.94-6.4-6.02-9.54l-66.21,38.3	c-12.23-17.53-27.51-32.79-45.06-45l38.22-66.26c-1.03-0.68-2.06-1.35-3.1-2.01c-0.94-0.6-1.88-1.2-2.82-1.78	c-0.24-0.16-0.5-0.32-0.75-0.47c-1.08-0.67-2.16-1.32-3.25-1.97c-0.95-0.57-1.9-1.13-2.86-1.68c-1.06-0.62-2.12-1.22-3.2-1.82	c-0.49-0.28-0.98-0.55-1.48-0.82c-2.8-1.55-5.63-3.04-8.5-4.47c-0.68-0.35-1.36-0.69-2.05-1.02c-0.68-0.34-1.36-0.67-2.05-1	s-1.37-0.66-2.06-0.98c-0.69-0.33-1.38-0.65-2.07-0.96c-3.76-1.72-7.56-3.35-11.39-4.88c-0.96-0.39-1.93-0.77-2.9-1.14	c-0.97-0.37-1.94-0.74-2.91-1.1c-0.74-0.28-1.48-0.55-2.23-0.82c-1.32-0.48-2.64-0.94-3.97-1.39c-0.87-0.3-1.74-0.59-2.61-0.88	c-5.61-1.86-11.29-3.51-17.03-4.97c-0.76-0.19-1.53-0.38-2.3-0.57c-0.87-0.21-1.73-0.42-2.61-0.62c-0.73-0.18-1.46-0.34-2.2-0.51	c-0.99-0.22-1.98-0.43-2.98-0.64c-0.69-0.15-1.38-0.29-2.08-0.43c-0.53-0.11-1.05-0.21-1.58-0.31c-5.4-1.07-10.84-1.95-16.33-2.66	c-0.74-0.1-1.49-0.19-2.24-0.28c-2.38-0.29-4.76-0.54-7.15-0.76c-0.02-0.01-0.03-0.01-0.04,0c-0.83-0.09-1.67-0.16-2.51-0.22	c-2.15-0.19-4.31-0.34-6.47-0.45c-0.51-0.04-1.03-0.07-1.54-0.09c-0.51-0.03-1.02-0.05-1.54-0.07c-1.53-0.07-3.06-0.13-4.6-0.17	c-0.6-0.02-1.2-0.04-1.8-0.05c-0.6-0.01-1.21-0.02-1.81-0.03C258.48,0.01,257.24,0,256,0c-5.02,0-10.02,0.14-15,0.44v76.34	c-22.16,1.84-43.2,7.71-62.37,16.88l-38.54-66.05c-0.88,0.45-1.75,0.9-2.62,1.36c-2.62,1.37-5.21,2.81-7.79,4.27l-0.01-0.02	c-5.26,2.99-10.42,6.17-15.47,9.54c-2.46,1.65-4.89,3.34-7.3,5.07c-11.25,8.09-21.93,17.16-31.92,27.15	c-10.4,10.4-19.8,21.55-28.14,33.31c-1.83,2.57-3.6,5.17-5.33,7.8c-5.5,8.4-10.48,17.08-14.92,26.02l66.4,37.97	c-8.88,18.98-14.54,39.74-16.27,61.6l-76.34,0.29C0.13,246.63,0,251.3,0,256c0,5.35,0.16,10.67,0.49,15.97	c0.16,2.72,0.37,5.43,0.63,8.14c2.67,28.86,10.15,56.7,22.03,82.6c1.38,3,2.81,5.97,4.31,8.91c4.51,8.9,9.56,17.55,15.12,25.91	l66.12-38.47c12.28,17.5,27.59,32.72,45.17,44.89l-38.05,66.35c8.39,5.52,17.07,10.52,26.01,14.97c2.52,1.26,5.06,2.48,7.62,3.65	c26.02,11.92,54.01,19.39,83.01,22.01c3.05,0.29,6.11,0.51,9.18,0.67c4.76,0.27,9.55,0.4,14.36,0.4c1.59,0,3.17-0.01,4.75-0.05	c0.83-0.01,1.66-0.03,2.48-0.06c0.08,0.01,0.16,0.01,0.24,0c0.31-0.01,0.62-0.01,0.93-0.03c0.05,0,0.11,0,0.16-0.01	c1.06-0.03,2.12-0.07,3.18-0.12c1.15-0.05,2.3-0.11,3.44-0.18c0.15,0,0.3-0.01,0.46-0.02l-0.19-76.35	c21.84-1.87,42.58-7.65,61.5-16.65l38.38,66.15c1.11-0.56,2.22-1.13,3.33-1.71c0.86-0.45,1.72-0.91,2.57-1.37	c2.52-1.34,5-2.74,7.46-4.17c1.02-0.6,2.03-1.2,3.04-1.81c2.31-1.38,4.59-2.81,6.85-4.27c0.9-0.58,1.79-1.17,2.68-1.76	c2.36-1.56,4.7-3.17,7.01-4.83c1.45-1.03,2.88-2.08,4.31-3.14c1.43-1.06,2.84-2.13,4.24-3.23l1.68-1.32	c0.84-0.66,1.68-1.33,2.51-2.01c0.7-0.56,1.39-1.13,2.07-1.7c0.81-0.67,1.61-1.34,2.41-2.02c5.34-4.53,10.52-9.31,15.53-14.32	c1.17-1.17,2.33-2.35,3.47-3.54c0.69-0.71,1.37-1.43,2.04-2.15c1.32-1.39,2.6-2.79,3.88-4.2c1.21-1.35,2.41-2.7,3.59-4.07	c0.12-0.14,0.24-0.28,0.36-0.42c0.71-0.82,1.41-1.65,2.1-2.48c1.06-1.26,2.11-2.53,3.14-3.81c0.43-0.54,0.86-1.08,1.29-1.62	c0.61-0.77,1.21-1.53,1.81-2.31c0.6-0.77,1.2-1.55,1.79-2.34c0.99-1.3,1.96-2.61,2.91-3.92c0.49-0.68,0.98-1.35,1.46-2.03	c0.04-0.04,0.07-0.09,0.11-0.15c1.05-1.47,2.09-2.97,3.11-4.47c0.67-0.97,1.32-1.95,1.96-2.93c0.03-0.04,0.06-0.08,0.09-0.13	c0.03-0.05,0.07-0.1,0.09-0.15c0.41-0.61,0.81-1.21,1.2-1.83c0.14-0.22,0.29-0.44,0.43-0.67c0.79-1.24,1.58-2.49,2.36-3.75	c0.65-1.06,1.29-2.12,1.93-3.19c0.63-1.06,1.26-2.13,1.88-3.2c1.89-3.26,3.69-6.56,5.42-9.89c0.57-1.1,1.13-2.2,1.68-3.31	l-66.3-38.13c8.92-18.95,14.63-39.71,16.42-61.56l76.34-0.1c0.07-1.22,0.13-2.44,0.18-3.66c0.11-2.44,0.18-4.88,0.21-7.33	c0.02-1.23,0.03-2.45,0.03-3.68C512,251.9,511.9,247.82,511.71,243.75z M256,405.85c-82.63,0-149.85-67.22-149.85-149.85	S173.37,106.15,256,106.15S405.85,173.37,405.85,256S338.63,405.85,256,405.85z"/><path style="fill:#e1e1e4" d="M361.965,361.965C333.658,390.259,296.025,405.85,256,405.85v-299.7	c40.025,0,77.658,15.592,105.965,43.885c28.294,28.306,43.885,65.94,43.885,105.965S390.259,333.659,361.965,361.965z"/><path style="fill:#990013" d="M512,256c0,1.23-0.01,2.45-0.03,3.68c-0.03,2.45-0.1,4.89-0.21,7.33c-0.05,1.22-0.11,2.44-0.18,3.66	l-76.34,0.1c-1.79,21.85-7.5,42.61-16.42,61.56l66.3,38.13c-0.55,1.11-1.11,2.21-1.68,3.31c-1.73,3.33-3.53,6.63-5.42,9.89	c-0.62,1.07-1.25,2.14-1.88,3.2c-0.64,1.07-1.28,2.13-1.93,3.19c-0.78,1.26-1.57,2.51-2.36,3.75c-0.14,0.23-0.29,0.45-0.43,0.67	c-0.39,0.62-0.79,1.22-1.2,1.83c-0.02,0.05-0.06,0.1-0.09,0.15s-0.06,0.09-0.09,0.13c-0.64,0.98-1.29,1.96-1.96,2.93	c-1.02,1.5-2.06,3-3.11,4.47c-0.04,0.06-0.07,0.11-0.11,0.15c-0.48,0.68-0.97,1.35-1.46,2.03c-0.95,1.31-1.92,2.62-2.91,3.92	c-0.59,0.79-1.19,1.57-1.79,2.34c-0.6,0.78-1.2,1.54-1.81,2.31c-0.43,0.54-0.86,1.08-1.29,1.62c-1.03,1.28-2.08,2.55-3.14,3.81	c-0.69,0.83-1.39,1.66-2.1,2.48c-0.12,0.14-0.24,0.28-0.36,0.42c-1.18,1.37-2.38,2.72-3.59,4.07c-1.28,1.41-2.56,2.81-3.88,4.2	c-0.67,0.72-1.35,1.44-2.04,2.15c-1.14,1.19-2.3,2.37-3.47,3.54c-5.01,5.01-10.19,9.79-15.53,14.32c-0.8,0.68-1.6,1.35-2.41,2.02	c-0.68,0.57-1.37,1.14-2.07,1.7c-0.83,0.68-1.67,1.35-2.51,2.01l-1.68,1.32c-1.4,1.1-2.81,2.17-4.24,3.23s-2.86,2.11-4.31,3.14	c-2.31,1.66-4.65,3.27-7.01,4.83c-0.89,0.59-1.78,1.18-2.68,1.76c-2.26,1.46-4.54,2.89-6.85,4.27c-1.01,0.61-2.02,1.21-3.04,1.81	c-2.46,1.43-4.94,2.83-7.46,4.17c-0.85,0.46-1.71,0.92-2.57,1.37c-1.11,0.58-2.22,1.15-3.33,1.71l-38.38-66.15	c-18.92,9-39.66,14.78-61.5,16.65l0.19,76.35c-0.16,0.01-0.31,0.02-0.46,0.02c-1.14,0.07-2.29,0.13-3.44,0.18	c-1.06,0.05-2.12,0.09-3.18,0.12c-0.05,0.01-0.11,0.01-0.16,0.01c-0.31,0.02-0.62,0.02-0.93,0.03c-0.08,0.01-0.16,0.01-0.24,0	c-0.82,0.03-1.65,0.05-2.48,0.06c-1.58,0.04-3.16,0.05-4.75,0.05V405.85c82.63,0,149.85-67.22,149.85-149.85	S338.63,106.15,256,106.15V0c1.24,0,2.48,0.01,3.71,0.03c0.6,0.01,1.21,0.02,1.81,0.03s1.2,0.03,1.8,0.05	c1.54,0.04,3.07,0.1,4.6,0.17c0.52,0.02,1.03,0.04,1.54,0.07c0.51,0.02,1.03,0.05,1.54,0.09c2.16,0.11,4.32,0.26,6.47,0.45	c0.84,0.06,1.68,0.13,2.51,0.22c0.01-0.01,0.02-0.01,0.04,0c2.39,0.22,4.77,0.47,7.15,0.76c0.75,0.09,1.5,0.18,2.24,0.28	c5.49,0.71,10.93,1.59,16.33,2.66c0.53,0.1,1.05,0.2,1.58,0.31c0.7,0.14,1.39,0.28,2.08,0.43c1,0.21,1.99,0.42,2.98,0.64	c0.74,0.17,1.47,0.33,2.2,0.51c0.88,0.2,1.74,0.41,2.61,0.62c0.77,0.19,1.54,0.38,2.3,0.57c5.74,1.46,11.42,3.11,17.03,4.97	c0.87,0.29,1.74,0.58,2.61,0.88c1.33,0.45,2.65,0.91,3.97,1.39c0.75,0.27,1.49,0.54,2.23,0.82c0.97,0.36,1.94,0.73,2.91,1.1	c0.97,0.37,1.94,0.75,2.9,1.14c3.83,1.53,7.63,3.16,11.39,4.88c0.69,0.31,1.38,0.63,2.07,0.96c0.69,0.32,1.37,0.65,2.06,0.98	s1.37,0.66,2.05,1c0.69,0.33,1.37,0.67,2.05,1.02c2.87,1.43,5.7,2.92,8.5,4.47c0.5,0.27,0.99,0.54,1.48,0.82	c1.08,0.6,2.14,1.2,3.2,1.82c0.96,0.55,1.91,1.11,2.86,1.68c1.09,0.65,2.17,1.3,3.25,1.97c0.25,0.15,0.51,0.31,0.75,0.47	c0.94,0.58,1.88,1.18,2.82,1.78c1.04,0.66,2.07,1.33,3.1,2.01l-38.22,66.26c17.55,12.21,32.83,27.47,45.06,45l66.21-38.3	c2.08,3.14,4.09,6.32,6.02,9.54c0.55,0.91,1.09,1.83,1.64,2.76c0.61,1.04,1.21,2.09,1.8,3.15c0.31,0.53,0.6,1.06,0.89,1.6	c1.14,2.04,2.25,4.1,3.32,6.17c0.47,0.91,0.94,1.81,1.39,2.72c0.78,1.54,1.55,3.09,2.29,4.66c0.33,0.68,0.65,1.37,0.97,2.05	c0.11,0.24,0.23,0.47,0.33,0.71c0.3,0.65,0.6,1.29,0.89,1.94c0.37,0.81,0.73,1.62,1.09,2.44c0.41,0.91,0.81,1.83,1.2,2.75	c0.35,0.83,0.7,1.65,1.04,2.48c0.4,0.96,0.79,1.92,1.17,2.88c1.13,2.8,2.2,5.63,3.21,8.47c0.36,0.99,0.71,1.98,1.05,2.98	c2.42,7.01,4.53,14.13,6.33,21.35c0.26,1.08,0.52,2.16,0.78,3.24c0.45,1.89,0.87,3.79,1.27,5.7c0.22,1.02,0.43,2.04,0.63,3.07	c0.21,1.02,0.4,2.05,0.59,3.08c0.18,0.93,0.35,1.87,0.51,2.81c0.38,2.15,0.72,4.32,1.04,6.49c0.16,1.03,0.3,2.07,0.44,3.11	c0.15,1.04,0.28,2.09,0.41,3.13c0.35,2.9,0.66,5.81,0.92,8.73c0.22,2.55,0.41,5.1,0.56,7.65c0.02,0.39,0.05,0.77,0.06,1.15	c0.04,0.64,0.07,1.29,0.1,1.93C511.9,247.82,512,251.9,512,256z"/><path style="fill:#3c3a41" d="M327.723,284.935c-11.257,18.384-26.949,22.344-38.129,22.428	c-5.811,0.045-11.628-0.971-17.165-2.964c1.216,5.024,2.776,7.759,4.089,8.681l2.054,1.445V328h-45.145v-13.476l2.054-1.445	c1.313-0.922,2.873-3.657,4.089-8.681c-5.537,1.993-11.351,3.009-17.165,2.964c-11.18-0.084-26.871-4.044-38.129-22.428	c-9.074-14.821-9.313-32.398-0.658-48.222c6.678-12.215,17.026-21.95,27.032-31.366c1.761-1.654,3.421-3.218,5.076-4.805	c6.201-5.956,12.48-11.696,18.548-17.245c6.027-5.511,12.26-11.209,18.374-17.081L256,163l3.35,3.215	c6.114,5.872,12.347,11.57,18.374,17.081c6.069,5.55,12.347,11.289,18.548,17.245c1.654,1.587,3.315,3.15,5.076,4.805	c10.006,9.416,20.354,19.151,27.032,31.366C337.036,252.536,336.797,270.114,327.723,284.935z"/><path style="fill:#17171a" d="M327.723,284.935c-11.257,18.384-26.949,22.344-38.129,22.428	c-5.811,0.045-11.628-0.971-17.165-2.964c1.216,5.024,2.776,7.759,4.089,8.681l2.054,1.445V328H256V163l3.35,3.215	c6.114,5.872,12.347,11.57,18.374,17.081c6.069,5.55,12.347,11.289,18.548,17.245c1.654,1.587,3.315,3.15,5.076,4.805	c10.006,9.416,20.354,19.151,27.032,31.366C337.036,252.536,336.797,270.114,327.723,284.935z"/></svg>