<svg xmlns="http://www.w3.org/2000/svg" viewBox="0 0 1811 1804.83"><defs><style>.cls-1{fill:#e6e6e6;}.cls-2{fill:#4f4f4f;}</style></defs><title>Asset 4</title><g id="Layer_2" data-name="Layer 2"><g id="Layer_1-2" data-name="Layer 1"><circle class="cls-1" cx="893.15" cy="845.52" r="633.36"/><circle class="cls-1" cx="302.57" cy="265.52" r="201.12"/><circle class="cls-1" cx="1482.85" cy="231.12" r="231.12"/><circle class="cls-1" cx="1482.85" cy="1476.68" r="328.15"/><circle class="cls-1" cx="211.71" cy="1220.86" r="211.71"/><path class="cls-2" d="M1482.85,1232.33a243.16,243.16,0,0,0-126.29,35.13l-69.18-69.17a528.42,528.42,0,0,0-16.65-722.42l121.13-121.12a153.49,153.49,0,1,0-36.64-38.35l-123.5,123.51a528.41,528.41,0,0,0-701.93,22.83l-137-137a108.54,108.54,0,1,0-26.36,27.45l136.7,136.7A529.09,529.09,0,0,0,402.44,1041.2l-94.55,60a153.14,153.14,0,1,0,49.45,71l83.8-53.22c92.55,153,260.55,255.32,452.45,255.32a526.32,526.32,0,0,0,344.34-127.6l64.81,64.81a243.42,243.42,0,0,0-64.24,165.12c0,134.94,109.4,244.34,244.35,244.34s244.35-109.4,244.35-244.34S1617.8,1232.33,1482.85,1232.33Zm0-1127.8A126.59,126.59,0,1,1,1402.57,329L1385,311.4a126.59,126.59,0,0,1,97.87-206.87ZM302.57,346.67a81.16,81.16,0,1,1,81.15-81.15A81.16,81.16,0,0,1,302.57,346.67ZM211.71,1347.44a126.59,126.59,0,1,1,86.88-218.65h0L332,1181.45h0a126.68,126.68,0,0,1-120.33,166Zm1010.05-214.78a435.85,435.85,0,0,1-328.17,149.07c-159,0-298.13-85.17-374.22-212.38a435.92,435.92,0,0,1,49.37-513.84q12.68-14.21,26.58-27.23a435.76,435.76,0,0,1,626.44,604.38Zm261.09,545.53c-111.3,0-201.51-90.22-201.51-201.51s90.21-201.52,201.51-201.52,201.51,90.22,201.51,201.52S1594.15,1678.19,1482.85,1678.19Z"/></g></g></svg>