<svg xmlns="http://www.w3.org/2000/svg" viewBox="0 0 1800 1800"><defs><style>.cls-1{fill:#4a5568}.cls-2{fill:#fff}</style></defs><title>Asset 8</title><g id="Layer_2" data-name="Layer 2"><g id="Layer_1-2" data-name="Layer 1"><circle cx="900" cy="900" r="900" class="cls-1"/><circle cx="900" cy="900" r="720" class="cls-2"/><path d="M1149.46,1188.82,906,941.05a8.35,8.35,0,0,0-11.9,0L650.78,1188.81c-20.22,20.58-55.84,7.51-57-21.31,0-.55,0-1.11,0-1.66V641.5A48.49,48.49,0,0,1,642.23,593H1158a48.49,48.49,0,0,1,48.5,48.5v524.34c0,.55,0,1.11,0,1.66C1205.3,1196.32,1169.68,1209.4,1149.46,1188.82Z" class="cls-1"/></g></g></svg>