<svg xmlns="http://www.w3.org/2000/svg" xmlns:xlink="http://www.w3.org/1999/xlink" id="Capa_1" x="0" y="0" version="1.1" viewBox="0 0 512.001 512.001" xml:space="preserve" style="enable-background:new 0 0 512.001 512.001"><path style="fill:#ff9f00" d="M476.84,35.161c-46.882-46.882-122.824-46.882-169.706,0l-92.459,92.459	c-15.485,15.485-25.667,34.153-30.972,53.881c-5.727,21.002-5.516,43.276,0.637,64.277c5.303,18.88,15.485,36.698,30.335,51.548	c14.85,14.85,32.668,25.031,51.548,30.335c21.001,6.153,43.274,6.364,64.277,0.637c19.728-5.305,38.396-15.487,53.881-30.972	l92.459-92.459C523.721,157.986,523.721,82.044,476.84,35.161z M341.954,254.9c-3.606,3.606-7.638,6.788-12.092,9.122	c-22.909,13.577-53.033,10.607-72.761-9.122s-22.698-49.852-9.122-72.761c2.333-4.454,5.516-8.486,9.122-12.092l92.459-92.459	c23.334-23.334,61.519-23.334,84.853,0s23.334,61.519,0,84.853L341.954,254.9z"/><path style="fill:#ff7816" d="M476.84,204.868l-92.459,92.459c-15.485,15.485-34.153,25.667-53.881,30.972	c-21.002,5.727-43.276,5.516-64.277-0.637c-18.88-5.303-36.698-15.485-51.548-30.335l42.426-42.426	c19.728,19.728,49.852,22.698,72.761,9.122c4.454-2.333,8.486-5.516,12.092-9.122l92.459-92.459	c23.334-23.334,23.334-61.519,0-84.853l42.426-42.426C523.721,82.044,523.721,157.986,476.84,204.868z"/><path style="fill:#9ed0ff" d="M299.528,382.179l-94.66,94.66c-46.882,46.882-122.824,46.882-169.706,0s-46.882-122.824,0-169.706	l94.66-94.66c15.485-15.485,34.153-25.667,53.881-30.972c-5.727,21.002-5.516,43.276,0.637,64.277	c-4.454,2.333-8.486,5.516-12.092,9.122l-94.66,94.66c-23.334,23.334-23.334,61.519,0,84.853s61.519,23.334,84.853,0l94.66-94.66	c3.606-3.606,6.788-7.638,9.122-12.092c13.577-22.909,10.607-53.033-9.122-72.761s-22.698-49.852-9.122-72.761	c18.88,5.303,36.698,15.485,51.548,30.335c14.849,14.85,25.031,32.668,30.335,51.548c6.153,21.001,6.364,43.274,0.637,64.277	C325.195,348.026,315.013,366.694,299.528,382.179z"/><path style="fill:#73bcff" d="M299.528,382.179l-94.66,94.66c-46.882,46.882-122.824,46.882-169.706,0l42.426-42.426	c23.334,23.334,61.519,23.334,84.853,0l94.66-94.66c3.606-3.606,6.788-7.638,9.122-12.092c13.577-22.909,10.607-53.033-9.122-72.761	l42.426-42.426c14.849,14.85,25.031,32.668,30.335,51.548c6.153,21.001,6.364,43.274,0.637,64.277	C325.195,348.026,315.013,366.694,299.528,382.179z"/></svg>