<svg xmlns="http://www.w3.org/2000/svg" viewBox="0 0 1800 1800"><defs><style>.cls-1{fill:#4a5568}.cls-2{fill:#fff}</style></defs><title>Asset 6</title><g id="Layer_2" data-name="Layer 2"><g id="Layer_1-2" data-name="Layer 1"><circle cx="900" cy="900" r="900" class="cls-1"/><circle cx="900" cy="900" r="720" class="cls-2"/><path d="M1056,449.6H745a180.54,180.54,0,0,0-156.35,90.27L433.12,809.23a180.54,180.54,0,0,0,0,180.54l155.51,269.36A180.54,180.54,0,0,0,745,1349.4h311a180.54,180.54,0,0,0,156.35-90.27l155.51-269.36a180.54,180.54,0,0,0,0-180.54L1212.37,539.87A180.54,180.54,0,0,0,1056,449.6Z" class="cls-1"/></g></g></svg>