<svg id="Capa_1" enable-background="new 0 0 512 512" height="512" viewBox="0 0 512 512" width="512" xmlns="http://www.w3.org/2000/svg" xmlns:xlink="http://www.w3.org/1999/xlink"><linearGradient id="SVGID_1_" gradientUnits="userSpaceOnUse" x1="256" x2="256" y1="512" y2="0"><stop offset="0" stop-color="#a93aff"/><stop offset="1" stop-color="#ff81ff"/></linearGradient><linearGradient id="SVGID_2_" gradientUnits="userSpaceOnUse" x1="256" x2="256" y1="451" y2="61"><stop offset="0" stop-color="#ffbef9"/><stop offset="1" stop-color="#fff1ff"/></linearGradient><g><g><g><path d="m466 0h-421c-24.814 0-45 20.186-45 45v422c0 24.814 20.186 45 45 45h421c24.814 0 46-20.186 46-45v-422c0-24.814-21.186-45-46-45z" fill="url(#SVGID_1_)"/></g></g><g><g><path d="m76 271h30c8.291 0 15-6.709 15-15s-6.709-15-15-15h-30c-8.291 0-15 6.709-15 15s6.709 15 15 15zm180-150c-8.291 0-15 6.709-15 15v105h-75c-8.291 0-15 6.709-15 15s6.709 15 15 15h90c8.291 0 15-6.709 15-15v-120c0-8.291-6.709-15-15-15zm0 180c-8.291 0-15 6.709-15 15v30c0 8.291 6.709 15 15 15s15-6.709 15-15v-30c0-8.291-6.709-15-15-15zm0 90c-8.291 0-15 6.709-15 15v30c0 8.291 6.709 15 15 15s15-6.709 15-15v-30c0-8.291-6.709-15-15-15zm180 30h-105v-90h45c8.291 0 15-6.709 15-15v-60c0-8.291-6.709-15-15-15h-60c-8.291 0-15 6.709-15 15s6.709 15 15 15h45v30h-45c-8.291 0-15 6.709-15 15v120c0 8.291 6.709 15 15 15h120c8.291 0 15-6.709 15-15s-6.709-15-15-15zm0-90c-8.291 0-15 6.709-15 15v15h-45c-8.291 0-15 6.709-15 15s6.709 15 15 15h60c8.291 0 15-6.709 15-15v-30c0-8.291-6.709-15-15-15zm0-90c-8.291 0-15 6.709-15 15v30c0 8.291 6.709 15 15 15s15-6.709 15-15v-30c0-8.291-6.709-15-15-15zm-240 60h-120c-8.291 0-15 6.709-15 15v120c0 8.291 6.709 15 15 15h120c8.291 0 15-6.709 15-15v-120c0-8.291-6.709-15-15-15zm-60 90c-8.284 0-15-6.716-15-15 0-8.286 6.716-15 15-15s15 6.714 15 15c0 8.284-6.716 15-15 15zm-60-180h120c8.291 0 15-6.709 15-15v-120c0-8.291-6.709-15-15-15h-120c-8.291 0-15 6.709-15 15v120c0 8.291 6.709 15 15 15zm60-90c8.284 0 15 6.714 15 15 0 8.284-6.716 15-15 15s-15-6.716-15-15c0-8.286 6.716-15 15-15zm300-60h-120c-8.291 0-15 6.709-15 15v120c0 8.291 6.709 15 15 15h120c8.291 0 15-6.709 15-15v-120c0-8.291-6.709-15-15-15zm-60 90c-8.284 0-15-6.716-15-15 0-8.286 6.716-15 15-15s15 6.714 15 15c0 8.284-6.716 15-15 15z" fill="url(#SVGID_2_)"/></g></g></g></svg>