<svg xmlns="http://www.w3.org/2000/svg" viewBox="0 0 1792 1292"><defs><style>.cls-1{fill:#4f4f4f}.cls-2{fill:#e6e6e6}</style></defs><title>Asset 5</title><g id="Layer_2" data-name="Layer 2"><g id="Layer_1-2" data-name="Layer 1"><path d="M1792,371.33V920.67c0,205.08-230.59,371.33-515,371.33H515C230.59,1292,0,1125.75,0,920.67V371.33C0,166.25,230.59,0,515,0H1277C1561.41,0,1792,166.25,1792,371.33Z" class="cls-1"/><path d="M1717,402V890c0,182.2-211.29,329.89-471.93,329.89H546.93C286.29,1219.9,75,1072.21,75,890V402C75,219.79,286.29,72.1,546.93,72.1h698.14C1505.71,72.1,1717,219.79,1717,402Z" class="cls-2"/><polyline points="487 310 1305 310 896 981" class="cls-1"/></g></g></svg>